<svg xmlns="http://www.w3.org/2000/svg" width="700" height="700" viewBox="0 0 700 700">
  <rect x="0" y="0" width="700" height="350" fill="#bfe4b3"/>
  <rect x="0" y="350" width="700" height="70" fill="#f5e58b"/>
  <rect x="0" y="420" width="700" height="280" fill="#b8cdea"/>
  <rect x="140" y="77" width="420" height="112" rx="18" fill="#bfe4b3" opacity="0.85"/>
  <path d="M 49 154
           H 651
           V 308
           H 49
           Z" fill="none" stroke="#f3d86c" stroke-width="63" stroke-linejoin="round" opacity="0.85"/>
  <line x1="350" y1="350" x2="350" y2="420" stroke="#f3d86c" stroke-width="112" opacity="0.9"/>
  <polyline points="39.8,665.6 91.4,662.8 174.9,657.6 250.3,645.1 325.8,629.0 401.2,606.3 470.4,580.0 532.3,548.5 583.9,519.4 619.8,487.2 647.5,460.9 675.4,446.2" fill="none" stroke="#111" stroke-width="5" stroke-dasharray="14 10"/>
  <polyline points="646.8,462.0 525.0,436.8 378.0,425.6 350.0,403.2" fill="none" stroke="#d2691e" stroke-width="4" stroke-dasharray="8 8"/>
  <polyline points="350.0,403.2 350.0,322.0" fill="none" stroke="#d2691e" stroke-width="4"/>
  <circle cx="39.8" cy="665.6" r="12" fill="#0b7cc1"/>
  <text x="57.8" y="671.6" font-size="22">P</text>
  <rect x="657.4" y="428.2" width="36" height="36" fill="#ffec3d" stroke="#1e40ff" stroke-width="3" transform="rotate(45 675.4 446.2)"/>
  <text x="10" y="26" font-size="20">Generated fixed2d route preview (meters)</text>
  <text x="10" y="682" font-size="18">A_TO_QR black, QR_TO_CORRIDOR orange dashed, B_CORRIDOR orange</text>
</svg>
